<?xml version="1.0" encoding="iso-8859-1"?>
<!-- Generator: Adobe Illustrator 17.1.0, SVG Export Plug-In . SVG Version: 6.00 Build 0)  -->
<!DOCTYPE svg PUBLIC "-//W3C//DTD SVG 1.1//EN" "http://www.w3.org/Graphics/SVG/1.1/DTD/svg11.dtd">
<svg xmlns="http://www.w3.org/2000/svg" xmlns:xlink="http://www.w3.org/1999/xlink" version="1.1" id="Capa_1" x="0px" y="0px" viewBox="0 0 386.12 386.12" style="enable-background:new 0 0 386.12 386.12;" xml:space="preserve" width="512px" height="512px">
<path d="M382.706,13.965l-1.813-1.639l-2.407,0.423c-1.188,0.209-29.581,5.319-70.04,22.592  c-37.278,15.915-92.112,45.617-141.643,96.734c-37.538,38.741-63.985,72.47-78.607,100.25c-2.484,4.719-4.608,9.258-6.413,13.633  L3.051,349.726c-5.007,6.6-3.716,16.009,2.883,21.016c2.711,2.057,5.896,3.051,9.055,3.051c4.531,0,9.011-2.046,11.961-5.935  l53.353-70.319c3.366,4.992,7.303,7.498,9.054,8.435c13.289,11.773,30.907,17.992,51.003,17.993c0.003,0,0.002,0,0.005,0  c44.028,0,96.975-29.479,141.627-78.853c0.815-0.902,1.623-1.824,2.435-2.751l4.935-5.639l-61.506-20.719l86.285-14.907l1.177-1.979  c11.683-19.646,22.27-41.522,31.465-65.021l1.912-4.886l-44.927-15.135l52.891-9.138l1.134-2.242  c11.25-22.24,19.666-42.234,24.336-57.821C388.697,22.956,385.887,16.843,382.706,13.965z" fill="#a03030"/>
<g>
</g>
<g>
</g>
<g>
</g>
<g>
</g>
<g>
</g>
<g>
</g>
<g>
</g>
<g>
</g>
<g>
</g>
<g>
</g>
<g>
</g>
<g>
</g>
<g>
</g>
<g>
</g>
<g>
</g>
</svg>
